<svg width="18" height="16" viewBox="0 0 18 16" fill="none" xmlns="http://www.w3.org/2000/svg">
<path d="M11.2521 0.00881165C11.0568 -0.018533 10.8574 0.0182129 10.6878 0.112809L0.427996 5.71264C0.387207 5.73442 0.349808 5.76134 0.316847 5.79264L0.231349 5.85664C0.173473 5.91978 0.124614 5.9897 0.0860011 6.06463C0.0252318 6.17011 -0.00428718 6.28887 0.000502554 6.40862V14.4084C0.000502554 14.6205 0.0905811 14.824 0.250922 14.974C0.411263 15.1241 0.628732 15.2084 0.855488 15.2084H16.2452C16.472 15.2084 16.6895 15.1241 16.8498 14.974C17.0101 14.824 17.1002 14.6205 17.1002 14.4084V6.40862C17.1034 4.86406 16.5154 3.36949 15.4427 2.19553C14.3699 1.02157 12.8833 0.245845 11.2521 0.00881165ZM11.2521 1.64876C12.28 1.8457 13.22 2.32954 13.9481 3.03647C14.6762 3.7434 15.1581 4.64022 15.3304 5.60864H4.01894L11.2521 1.64876ZM15.3902 13.6084H1.71047V7.2086H15.3902V13.6084Z" fill="#C3C3C3"/>
<path d="M3.84794 12.8084C4.55623 12.8084 5.13042 12.2712 5.13042 11.6085C5.13042 10.9458 4.55623 10.4085 3.84794 10.4085C3.13965 10.4085 2.56546 10.9458 2.56546 11.6085C2.56546 12.2712 3.13965 12.8084 3.84794 12.8084Z" fill="#C3C3C3"/>
<path d="M8.12287 10.4085C8.83117 10.4085 9.40535 9.87126 9.40535 9.20854C9.40535 8.54582 8.83117 8.00858 8.12287 8.00858C7.41458 8.00858 6.84039 8.54582 6.84039 9.20854C6.84039 9.87126 7.41458 10.4085 8.12287 10.4085Z" fill="#C3C3C3"/>
<path d="M12.8253 12.8084C13.7697 12.8084 14.5353 12.0921 14.5353 11.2085C14.5353 10.3248 13.7697 9.60852 12.8253 9.60852C11.8809 9.60852 11.1153 10.3248 11.1153 11.2085C11.1153 12.0921 11.8809 12.8084 12.8253 12.8084Z" fill="#C3C3C3"/>
</svg>
