<svg width="16" height="16" viewBox="0 0 16 16" fill="none" xmlns="http://www.w3.org/2000/svg">
<g clip-path="url(#clip0_23_3977)">
<path d="M11.3333 14V12.6667C11.3333 11.9594 11.0524 11.2811 10.5523 10.781C10.0522 10.281 9.37392 10 8.66667 10H3.33334C2.62609 10 1.94782 10.281 1.44772 10.781C0.947623 11.2811 0.666672 11.9594 0.666672 12.6667V14M15.3333 14V12.6667C15.3329 12.0758 15.1362 11.5018 14.7742 11.0349C14.4123 10.5679 13.9054 10.2344 13.3333 10.0867M10.6667 2.08667C11.2403 2.23353 11.7487 2.56713 12.1118 3.03487C12.4748 3.50261 12.6719 4.07789 12.6719 4.67C12.6719 5.26211 12.4748 5.83739 12.1118 6.30513C11.7487 6.77287 11.2403 7.10647 10.6667 7.25333M8.66667 4.66667C8.66667 6.13943 7.47276 7.33333 6.00001 7.33333C4.52725 7.33333 3.33334 6.13943 3.33334 4.66667C3.33334 3.19391 4.52725 2 6.00001 2C7.47276 2 8.66667 3.19391 8.66667 4.66667Z" stroke="#C3C3C3" stroke-width="1.6" stroke-linecap="round" stroke-linejoin="round"/>
</g>
<defs>
<clipPath id="clip0_23_3977">
<rect width="16" height="16" fill="white"/>
</clipPath>
</defs>
</svg>
